<?xml version="1.0" encoding="utf-8"?>
<!-- Generator: Adobe Illustrator 22.0.1, SVG Export Plug-In . SVG Version: 6.00 Build 0)  -->
<svg version="1.1" id="Layer_1" xmlns="http://www.w3.org/2000/svg" xmlns:xlink="http://www.w3.org/1999/xlink" x="0px" y="0px"
	 viewBox="0 0 700 700" style="enable-background:new 0 0 700 700;" xml:space="preserve">
<g>
	<path d="M463.7,323.1h-16.8v-131c0-53.8-43.7-96.9-96.9-96.9s-96.9,43.1-96.9,96.9v131.6h-16.8c-11.8,0-21.3,9.5-21.3,21.3
		c0,11.8,9.5,21.3,21.3,21.3h50.4v91.3c0,4.5,3.9,8.4,8.4,8.4c4.5,0,8.4-3.9,8.4-8.4l0-92.4h92.4v91.3c0,4.5,3.9,8.4,8.4,8.4
		c4.5,0,8.4-3.9,8.4-8.4l0-91.3h50.4c11.8,0,20.7-9.5,20.7-21.3C484.4,332.6,474.9,323.1,463.7,323.1L463.7,323.1z M286.7,175.8
		v147.8h-16.8l0-132.2c0-31.4,15.1-59.4,38.6-77.3C295.1,131,286.7,152.3,286.7,175.8L286.7,175.8z"/>
</g>
</svg>
