<?xml version="1.0" encoding="utf-8"?>
<!-- Generator: Adobe Illustrator 22.0.1, SVG Export Plug-In . SVG Version: 6.00 Build 0)  -->
<svg version="1.1" id="Layer_1" xmlns="http://www.w3.org/2000/svg" xmlns:xlink="http://www.w3.org/1999/xlink" x="0px" y="0px"
	 viewBox="0 0 700 700" style="enable-background:new 0 0 700 700;" xml:space="preserve">
<g>
	<path d="M455.3,216.2v65.5h79.5v-65.5H455.3z M526.4,257.6l-31.9,7.8l0-7.8l24.1-6.2v-5.6l-24.1-6.2v-8.4l31.9,7.8L526.4,257.6z"/>
	<path d="M446.9,207.8h69.4v-79H181.4v115.9l-16.2,7.8v40.9l16.2,8.4v110.9h40.9l0-65.5h114.8v65.5h178.6V289.5h-68.9L446.9,207.8z
		 M495.6,137.2c6.7,0,12.3,5.6,12.3,12.3s-5.6,12.3-12.3,12.3s-12.3-5.6-12.3-12.3C483.3,142.2,488.9,137.2,495.6,137.2z M467,137.2
		h8.4v8.4H467V137.2z M467,153.4h8.4v8.4H467V153.4z M450.8,137.2h8.4v8.4l-8.4,0V137.2z M450.8,153.4h8.4v8.4h-8.4V153.4z
		 M495.6,380.2c6.7,0,12.3,5.6,12.3,12.3s-5.6,12.3-12.3,12.3s-12.3-5.6-12.3-12.3S488.9,380.2,495.6,380.2z M418.3,137.2h8.4v8.4
		h-8.4V137.2z M418.3,153.4h8.4v8.4h-8.4V153.4z M402.1,137.2h8.4v8.4h-8.4V137.2z M402.1,153.4h8.4v8.4h-8.4V153.4z M385.3,137.2
		h8.4v8.4h-8.4V137.2z M385.3,153.4h8.4v8.4h-8.4V153.4z M364.6,343.3v-8.4h23v8.4H364.6z M387,351.1v8.4h-23v-8.4H387z M364.6,327
		v-8.4h23v8.4H364.6z M369,137.2h8.4v8.4H369V137.2z M369,153.4h8.4v8.4H369V153.4z M352.8,137.2h8.4v8.4h-8.4V137.2z M352.8,153.4
		h8.4v8.4h-8.4V153.4z M336.6,137.2h8.4v8.4h-8.4V137.2z M336.6,153.4h8.4v8.4h-8.4V153.4z M320.3,137.2h8.4v8.4h-8.4V137.2z
		 M320.3,153.4h8.4v8.4h-8.4V153.4z M304.1,137.2h8.4v8.4h-8.4V137.2z M304.1,153.4h8.4v8.4h-8.4V153.4z M222.9,137.2h8.4v8.4h-8.4
		V137.2z M222.9,153.4h8.4v8.4h-8.4V153.4z M202.2,137.2c6.7,0,12.3,5.6,12.3,12.3s-5.6,12.3-12.3,12.3s-12.3-5.6-12.3-12.3
		C189.8,142.2,195.4,137.2,202.2,137.2z M202.2,404.3c-6.7,0-12.3-5.6-12.3-12.3s5.6-12.3,12.3-12.3s12.3,5.6,12.3,12.3
		S208.9,404.3,202.2,404.3z M215.6,330.4h-25.8V216.2h25.8v16.2h-9.5v81.8h9.5V330.4z M237.4,301.8h-23v-8.4h23V301.8z M237.4,285.6
		h-23v-8.4h23V285.6z M237.4,269.4h-23V261h23V269.4z M237.4,252.6h-23v-8.4h23V252.6z M247,161.3h-8.4v-8.4h8.4V161.3z M247,145
		h-8.4v-8.4h8.4V145z M263.2,161.3h-8.4v-8.4h8.4V161.3z M263.2,145h-8.4v-8.4h8.4V145z M280,161.3h-8.4v-8.4h8.4V161.3z M280,145
		h-8.4v-8.4h8.4V145z M296.2,161.3h-8.4v-8.4h8.4V161.3z M296.2,145h-8.4v-8.4h8.4V145z M296.2,289.5V224l8.4-8.4h65.5V289h-73.9
		L296.2,289.5z M364.6,367.9h23v8.4h-23V367.9z M429,367.9l-16.2,8.4v28.6H387v-16.2h9.5v-82.3H387v-16.2h25.8v28.6L429,327V367.9z
		 M442.4,161.3H434v-8.4h8.4V161.3z M442.4,145H434v-8.4h8.4V145z"/>
	<path d="M230.7,431.2h98.6l0-75.6h-98.6L230.7,431.2z M292.9,390.9l6.2,23.5h5.6l6.2-23.5h8.4l-7.8,31.9h-17.9l-7.8-31.9H292.9z
		 M250.3,390.9l6.2,23.5h5.6l6.2-23.5h8.4l-7.8,31.9h-17.9l-7.8-31.9H250.3z"/>
	<path d="M318.6,233c0,3.1-2.5,5.6-5.6,5.6s-5.6-2.5-5.6-5.6s2.5-5.6,5.6-5.6S318.6,229.9,318.6,233"/>
</g>
</svg>
