<?xml version="1.0" encoding="utf-8"?>
<!-- Generator: Adobe Illustrator 22.0.1, SVG Export Plug-In . SVG Version: 6.00 Build 0)  -->
<svg version="1.1" id="Layer_1" xmlns="http://www.w3.org/2000/svg" xmlns:xlink="http://www.w3.org/1999/xlink" x="0px" y="0px"
	 viewBox="0 0 700 700" style="enable-background:new 0 0 700 700;" xml:space="preserve">
<g>
	<path d="M117.1,162.6c-15.3,0-27.8,12.7-27.8,28v194.1c0,15.3,12.5,27.8,27.8,27.8h467.8c15.3,0,28-12.5,28-27.8V190.6
		c0-15.3-12.7-28-28-28H117.1z M117.1,173.8h467.8c9.3,0,16.8,7.5,16.8,16.8v194.1c0,9.3-7.5,16.6-16.8,16.6H117.1
		c-9.3,0-16.6-7.3-16.6-16.6V190.6C100.5,181.2,107.7,173.8,117.1,173.8L117.1,173.8z M470.1,219.6c-1.2-0.1-2.5,0-3.9,0.2H234.7
		c-20.9,0-26.2,15.6-28.9,36.8c-1.4,21.1,22.8,84.2,22.8,84.2c3.4,10.3,10.2,15,21.9,14.5h207.7c9.8,0.5,15.5-4.4,17.3-12.6
		c0,0,23.2-67.7,21-89.1C494.9,241.1,488.3,220.1,470.1,219.6L470.1,219.6z M449.8,256.7c5.6,0,10.1,4.6,10.1,10.1
		c0,5.6-4.6,10-10.1,10c-5.6,0-10-4.4-10-10S444.2,256.7,449.8,256.7z M252.5,257.4c5.6,0,10,4.6,10,10.1c0,5.6-4.4,10-10,10
		s-10.1-4.4-10.1-10S247,257.4,252.5,257.4L252.5,257.4z M301.9,257.4c5.6,0,10,4.6,10,10.1c0,5.6-4.4,10-10,10s-10.1-4.4-10.1-10
		S296.3,257.4,301.9,257.4z M351.2,257.4c5.6,0,10,4.6,10,10.1c0,5.6-4.4,10-10,10s-10.1-4.4-10.1-10S345.7,257.4,351.2,257.4z
		 M400.4,257.4c5.6,0,10.2,4.6,10.2,10.1c0,5.6-4.6,10-10.2,10c-5.6,0-10-4.4-10-10S394.9,257.4,400.4,257.4z M155.1,260.7
		c-17.4,0-31.5,14.1-31.5,31.5s14.1,31.5,31.5,31.5c17.4,0,31.5-14.1,31.5-31.5S172.5,260.7,155.1,260.7z M552.7,260.7
		c-17.4,0-31.5,14.1-31.5,31.5s14.1,31.5,31.5,31.5c17.4,0,31.5-14.1,31.5-31.5S570.1,260.7,552.7,260.7z M280.2,298
		c5.6,0,10.1,4.6,10.1,10.1c0,5.6-4.6,10-10.1,10c-5.6,0-10-4.4-10-10S274.6,298,280.2,298z M329.5,298c5.6,0,10.1,4.6,10.1,10.1
		c0,5.6-4.6,10-10.1,10c-5.6,0-10-4.4-10-10S324,298,329.5,298z M378.9,298c5.6,0,10,4.6,10,10.1c0,5.6-4.4,10-10,10s-10-4.4-10-10
		S373.3,298,378.9,298z M428.2,298c5.6,0,10,4.6,10,10.1c0,5.6-4.4,10-10,10s-10.1-4.4-10.1-10S422.7,298,428.2,298z"/>
</g>
</svg>
